<?xml version="1.0" encoding="UTF-8" standalone="no"?>
<svg
   xmlns:dc="http://purl.org/dc/elements/1.1/"
   xmlns:cc="http://creativecommons.org/ns#"
   xmlns:rdf="http://www.w3.org/1999/02/22-rdf-syntax-ns#"
   xmlns:svg="http://www.w3.org/2000/svg"
   xmlns="http://www.w3.org/2000/svg"
   xmlns:sodipodi="http://sodipodi.sourceforge.net/DTD/sodipodi-0.dtd"
   xmlns:inkscape="http://www.inkscape.org/namespaces/inkscape"
   version="1.1"
   x="0px"
   y="0px"
   viewBox="0 0 96 96"
   xml:space="preserve"
   id="svg12"
   sodipodi:docname="noun_1014395_cc.svg"
   width="1in"
   height="1in"
   inkscape:version="0.92.2 5c3e80d, 2017-08-06"><metadata
     id="metadata18"><rdf:RDF><cc:Work
         rdf:about=""><dc:format>image/svg+xml</dc:format><dc:type
           rdf:resource="http://purl.org/dc/dcmitype/StillImage" /><dc:title></dc:title></cc:Work></rdf:RDF></metadata><defs
     id="defs16" /><sodipodi:namedview
     pagecolor="#ffffff"
     bordercolor="#666666"
     borderopacity="1"
     objecttolerance="10"
     gridtolerance="10"
     guidetolerance="10"
     inkscape:pageopacity="0"
     inkscape:pageshadow="2"
     inkscape:window-width="1431"
     inkscape:window-height="858"
     id="namedview14"
     showgrid="false"
     units="in"
     width="1in"
     inkscape:zoom="1.888"
     inkscape:cx="50"
     inkscape:cy="62.5"
     inkscape:window-x="0"
     inkscape:window-y="0"
     inkscape:window-maximized="0"
     inkscape:current-layer="svg12" /><g
     id="g6"
     transform="translate(-2,-3)"><path
       d="M 50,87.5 C 70.7,87.5 87.5,70.7 87.5,50 87.5,29.3 70.7,12.5 50,12.5 29.3,12.5 12.5,29.3 12.5,50 12.5,70.7 29.3,87.5 50,87.5 Z m 0,-72 C 69,15.5 84.5,31 84.5,50 84.5,69 69,84.5 50,84.5 31,84.5 15.5,69 15.5,50 15.5,31 31,15.5 50,15.5 Z"
       id="path2"
       inkscape:connector-curvature="0" /><path
       d="m 33,52 h 15 v 15 c 0,0.8 0.7,1.5 1.5,1.5 0.8,0 1.5,-0.7 1.5,-1.5 V 52 h 16 c 0.8,0 1.5,-0.7 1.5,-1.5 C 68.5,49.7 67.8,49 67,49 H 51 V 33 C 51,32.2 50.3,31.5 49.5,31.5 48.7,31.5 48,32.2 48,33 V 49 H 33 c -0.8,0 -1.5,0.7 -1.5,1.5 0,0.8 0.7,1.5 1.5,1.5 z"
       id="path4"
       inkscape:connector-curvature="0" /></g></svg>